0
SECTION
2
HEADER
9
$INSUNITS
70
4
9
$ACADVER
1
AC1014
9
$HANDSEED
5
FFFF
0
ENDSEC
0
SECTION
2
TABLES
0
TABLE
2
VPORT
5
8
100
AcDbSymbolTable
0
ENDTAB
0
TABLE
2
LTYPE
5
5
100
AcDbSymbolTable
0
LTYPE
5
14
100
AcDbSymbolTableRecord
100
AcDbLinetypeTableRecord
2
BYBLOCK
70
0
0
LTYPE
5
15
100
AcDbSymbolTableRecord
100
AcDbLinetypeTableRecord
2
BYLAYER
70
0
0
ENDTAB
0
TABLE
2
LAYER
5
2
100
AcDbSymbolTable
70
2
0
LAYER
5
50
100
AcDbSymbolTableRecord
100
AcDbLayerTableRecord
2
0
70
0
6
CONTINUOUS
0
ENDTAB
0
TABLE
2
STYLE
5
3
100
AcDbSymbolTable
70
1
0
STYLE
5
11
100
AcDbSymbolTableRecord
100
AcDbTextStyleTableRecord
2
STANDARD
70
0
0
ENDTAB
0
TABLE
2
VIEW
5
6
100
AcDbSymbolTable
70
0
0
ENDTAB
0
TABLE
2
UCS
5
7
100
AcDbSymbolTable
70
0
0
ENDTAB
0
TABLE
2
APPID
5
9
100
AcDbSymbolTable
70
2
0
APPID
5
12
100
AcDbSymbolTableRecord
100
AcDbRegAppTableRecord
2
ACAD
70
0
0
ENDTAB
0
TABLE
2
DIMSTYLE
5
A
100
AcDbSymbolTable
70
1
0
ENDTAB
0
TABLE
2
BLOCK_RECORD
5
1
100
AcDbSymbolTable
70
1
0
BLOCK_RECORD
5
1F
100
AcDbSymbolTableRecord
100
AcDbBlockTableRecord
2
*MODEL_SPACE
0
BLOCK_RECORD
5
1B
100
AcDbSymbolTableRecord
100
AcDbBlockTableRecord
2
*PAPER_SPACE
0
ENDTAB
0
ENDSEC
0
SECTION
2
BLOCKS
0
BLOCK
5
20
100
AcDbEntity
100
AcDbBlockBegin
2
*MODEL_SPACE
0
ENDBLK
5
21
100
AcDbEntity
100
AcDbBlockEnd
0
BLOCK
5
1C
100
AcDbEntity
100
AcDbBlockBegin
2
*PAPER_SPACE
0
ENDBLK
5
1D
100
AcDbEntity
100
AcDbBlockEnd
0
ENDSEC
0
SECTION
2
ENTITIES
0
LINE
5
100
100
AcDbEntity
8
0
100
AcDbLine
10
-17
20
86
30
0
11
-10.5
21
67
31
0
0
ARC
5
101
100
AcDbEntity
8
0
100
AcDbCircle
10
-18.525816808709259
20
85.478010039125792
30
0
40
1.6126346309667161
210
0
220
-0
230
1
100
AcDbArc
50
18.8860873697089
51
198.88608736970983
0
LINE
5
102
100
AcDbEntity
8
0
100
AcDbLine
10
-20.051633617418517
20
84.956020078251555
30
0
11
-14.089993767884856
21
67.529688210384236
31
0
0
LINE
5
103
100
AcDbEntity
8
0
100
AcDbLine
10
-13.551633617418414
20
64.292811419754287
30
0
11
-13.551633617418414
21
0
31
0
0
SPLINE
5
104
100
AcDbEntity
8
0
100
AcDbSpline
70
4
71
5
72
16
73
10
74
0
42
0.000000001
43
0.0000000001
44
0.0000000001
40
0
40
0
40
0
40
0
40
0
40
0
40
0.20000000000000001
40
0.40000000000000002
40
0.60000000000000009
40
0.80000000000000004
40
1
40
1
40
1
40
1
40
1
40
1
41
1
41
1
41
1
41
1
41
1
41
1
41
1
41
1
41
1
41
1
10
-10.5
20
67
30
0
10
-10.328284132872337
20
66.498061311472981
30
0
10
-9.9747189908925868
20
65.598149695802178
30
0
10
-9.413939086278722
20
64.559895010981464
30
0
10
-8.5624260569443464
20
63.709374840586115
30
0
10
-7.0195599990618565
20
63.21415582812665
30
0
10
-5.0161305089643813
20
63.060968476964668
30
0
10
-2.8226734987394781
20
63.011083494057736
30
0
10
-1.0008637309242328
20
62.999999496651419
30
0
10
0
20
63
30
0
0
LINE
5
105
100
AcDbEntity
8
0
100
AcDbLine
10
-8.3516336174184147
20
0
30
0
11
0
21
0
31
0
0
ARC
5
106
100
AcDbEntity
8
0
100
AcDbCircle
10
-23.551633617418016
20
64.292811419754401
30
0
40
9.9999999999996003
210
-0
220
0
230
1
100
AcDbArc
50
0
51
18.886087369709667
0
SPLINE
5
107
100
AcDbEntity
8
0
100
AcDbSpline
70
4
71
5
72
16
73
10
74
0
42
0.000000001
43
0.0000000001
44
0.0000000001
40
0
40
0
40
0
40
0
40
0
40
0
40
0.20000000000000001
40
0.40000000000000002
40
0.60000000000000009
40
0.80000000000000004
40
1
40
1
40
1
40
1
40
1
40
1
41
1
41
1
41
1
41
1
41
1
41
1
41
1
41
1
41
1
41
1
10
10.5
20
67
30
0
10
10.328284132872337
20
66.498061311472981
30
0
10
9.9747189908925868
20
65.598149695802178
30
0
10
9.413939086278722
20
64.559895010981464
30
0
10
8.5624260569443464
20
63.709374840586115
30
0
10
7.0195599990618565
20
63.21415582812665
30
0
10
5.0161305089643813
20
63.060968476964668
30
0
10
2.8226734987394781
20
63.011083494057736
30
0
10
1.0008637309242328
20
62.999999496651419
30
0
10
0
20
63
30
0
0
LINE
5
108
100
AcDbEntity
8
0
100
AcDbLine
10
17
20
86
30
0
11
10.5
21
67
31
0
0
ARC
5
109
100
AcDbEntity
8
0
100
AcDbCircle
10
18.525816808709259
20
85.478010039125792
30
0
40
1.6126346309667259
210
-0
220
0
230
1
100
AcDbArc
50
-18.886087369709834
51
161.11391263029111
0
LINE
5
110
100
AcDbEntity
8
0
100
AcDbLine
10
20.051633617418517
20
84.956020078251555
30
0
11
14.089993767884856
21
67.529688210384236
31
0
0
ARC
5
111
100
AcDbEntity
8
0
100
AcDbCircle
10
23.551633617418016
20
64.292811419754401
30
0
40
9.9999999999996003
210
0
220
0
230
1
100
AcDbArc
50
161.11391263029034
51
180
0
LINE
5
112
100
AcDbEntity
8
0
100
AcDbLine
10
13.551633617418414
20
64.292811419754287
30
0
11
13.551633617418414
21
0
31
0
0
LINE
5
113
100
AcDbEntity
8
0
100
AcDbLine
10
-8.3516336174184147
20
0
30
0
11
-8.3516336174184147
21
-2.8000000000000003
31
0
0
LINE
5
114
100
AcDbEntity
8
0
100
AcDbLine
10
-8.3516336174184147
20
-2.8000000000000003
30
0
11
-13.551633617418414
21
-2.8000000000000003
31
0
0
LINE
5
115
100
AcDbEntity
8
0
100
AcDbLine
10
-13.551633617418414
20
-2.8000000000000003
30
0
11
-13.551633617418414
21
0
31
0
0
LINE
5
116
100
AcDbEntity
8
0
100
AcDbLine
10
13.551633617418414
20
-2.8000000000000003
30
0
11
13.551633617418414
21
0
31
0
0
LINE
5
117
100
AcDbEntity
8
0
100
AcDbLine
10
8.3516336174184147
20
-2.8000000000000025
30
0
11
13.551633617418414
21
-2.8000000000000025
31
0
0
LINE
5
118
100
AcDbEntity
8
0
100
AcDbLine
10
8.3516336174184147
20
0
30
0
11
8.3516336174184147
21
-2.8000000000000025
31
0
0
LINE
5
119
100
AcDbEntity
8
0
100
AcDbLine
10
8.3516336174184147
20
0
30
0
11
0
21
0
31
0
0
ENDSEC
0
SECTION
2
OBJECTS
0
DICTIONARY
5
C
100
AcDbDictionary
3
ACAD_GROUP
350
D
3
ACAD_MLINESTYLE
350
17
0
DICTIONARY
5
D
100
AcDbDictionary
0
DICTIONARY
5
1A
330
C
100
AcDbDictionary
0
DICTIONARY
5
17
100
AcDbDictionary
0
ENDSEC
0
EOF
