0
SECTION
2
HEADER
9
$INSUNITS
70
4
9
$ACADVER
1
AC1014
9
$HANDSEED
5
FFFF
0
ENDSEC
0
SECTION
2
TABLES
0
TABLE
2
VPORT
5
8
100
AcDbSymbolTable
0
ENDTAB
0
TABLE
2
LTYPE
5
5
100
AcDbSymbolTable
0
LTYPE
5
14
100
AcDbSymbolTableRecord
100
AcDbLinetypeTableRecord
2
BYBLOCK
70
0
0
LTYPE
5
15
100
AcDbSymbolTableRecord
100
AcDbLinetypeTableRecord
2
BYLAYER
70
0
0
ENDTAB
0
TABLE
2
LAYER
5
2
100
AcDbSymbolTable
70
2
0
LAYER
5
50
100
AcDbSymbolTableRecord
100
AcDbLayerTableRecord
2
0
70
0
6
CONTINUOUS
0
ENDTAB
0
TABLE
2
STYLE
5
3
100
AcDbSymbolTable
70
1
0
STYLE
5
11
100
AcDbSymbolTableRecord
100
AcDbTextStyleTableRecord
2
STANDARD
70
0
0
ENDTAB
0
TABLE
2
VIEW
5
6
100
AcDbSymbolTable
70
0
0
ENDTAB
0
TABLE
2
UCS
5
7
100
AcDbSymbolTable
70
0
0
ENDTAB
0
TABLE
2
APPID
5
9
100
AcDbSymbolTable
70
2
0
APPID
5
12
100
AcDbSymbolTableRecord
100
AcDbRegAppTableRecord
2
ACAD
70
0
0
ENDTAB
0
TABLE
2
DIMSTYLE
5
A
100
AcDbSymbolTable
70
1
0
ENDTAB
0
TABLE
2
BLOCK_RECORD
5
1
100
AcDbSymbolTable
70
1
0
BLOCK_RECORD
5
1F
100
AcDbSymbolTableRecord
100
AcDbBlockTableRecord
2
*MODEL_SPACE
0
BLOCK_RECORD
5
1B
100
AcDbSymbolTableRecord
100
AcDbBlockTableRecord
2
*PAPER_SPACE
0
ENDTAB
0
ENDSEC
0
SECTION
2
BLOCKS
0
BLOCK
5
20
100
AcDbEntity
100
AcDbBlockBegin
2
*MODEL_SPACE
0
ENDBLK
5
21
100
AcDbEntity
100
AcDbBlockEnd
0
BLOCK
5
1C
100
AcDbEntity
100
AcDbBlockBegin
2
*PAPER_SPACE
0
ENDBLK
5
1D
100
AcDbEntity
100
AcDbBlockEnd
0
ENDSEC
0
SECTION
2
ENTITIES
0
LWPOLYLINE
5
100
100
AcDbEntity
8
0
100
AcDbPolyline
90
4
70
1
43
0.0
10
227.0000011920929
20
4.5679325462206995e-15
10
77.000001192092896
20
0
10
77.000001192092896
20
90
10
227.0000011920929
20
90
0
LINE
5
101
100
AcDbEntity
8
0
100
AcDbLine
10
77.000001192092896
20
90
30
0
11
80.000001192092896
21
90
31
0
0
LINE
5
102
100
AcDbEntity
8
0
100
AcDbLine
10
77.000001192092896
20
87
30
0
11
77.000001192092896
21
90
31
0
0
LWPOLYLINE
5
103
100
AcDbEntity
8
0
100
AcDbPolyline
90
4
70
1
43
0.0
10
82.895001192092906
20
87
10
80.000001192092896
20
87
10
80.000001192092896
20
84.10499999999999
10
82.895001192092906
20
84.10499999999999
0
LWPOLYLINE
5
104
100
AcDbEntity
8
0
100
AcDbPolyline
90
4
70
1
43
0.0
10
224.0000011920929
20
87
10
224.0000011920929
20
84.10499999999999
10
221.10500119209289
20
84.10499999999999
10
221.10500119209289
20
87
0
LWPOLYLINE
5
105
100
AcDbEntity
8
0
100
AcDbPolyline
90
4
70
1
43
0.0
10
80.000001192092896
20
5.8950000000000102
10
82.895001192092906
20
5.8950000000000102
10
82.895001192092906
20
3.0000000000000071
10
80.000001192092896
20
3.0000000000000071
0
LWPOLYLINE
5
106
100
AcDbEntity
8
0
100
AcDbPolyline
90
4
70
1
43
0.0
10
221.10500119209289
20
3.0000000000000031
10
224.0000011920929
20
3.0000000000000031
10
224.0000011920929
20
5.8950000000000014
10
221.10500119209289
20
5.8950000000000022
0
LINE
5
107
100
AcDbEntity
8
0
100
AcDbLine
10
90.290001192092888
20
70.947499999999991
30
0
11
90.290001192092888
21
69.5
31
0
0
LINE
5
108
100
AcDbEntity
8
0
100
AcDbLine
10
90.290001192092888
20
68.052499999999995
30
0
11
90.290001192092888
21
69.5
31
0
0
LINE
5
109
100
AcDbEntity
8
0
100
AcDbLine
10
90.290001192092888
20
70.947499999999977
30
0
11
90.290001192092888
21
69.499999999999972
31
0
0
LINE
5
110
100
AcDbEntity
8
0
100
AcDbLine
10
90.290001192092888
20
68.052499999999981
30
0
11
90.290001192092888
21
69.499999999999972
31
0
0
LWPOLYLINE
5
111
100
AcDbEntity
8
0
100
AcDbPolyline
90
4
70
1
43
0.0
10
126.39500119209291
20
51
10
126.39500119209291
20
84.105000000000004
42
0.99999999999999989
10
123.39500119209291
20
84.105000000000004
10
123.39500119209291
20
51
42
0.99999999999999989
0
LWPOLYLINE
5
112
100
AcDbEntity
8
0
100
AcDbPolyline
90
4
70
1
43
0.0
10
126.39500119209295
20
5.8950000000000014
42
-0.99999999999999989
10
123.39500119209291
20
5.8950000000000014
10
123.39500119209291
20
39.000000000000014
42
-0.99999999999999989
10
126.39500119209291
20
39.000000000000014
0
LINE
5
113
100
AcDbEntity
8
0
100
AcDbLine
10
123.39500119209291
20
20.500000000000036
30
0
11
123.39500119209291
21
20.499998964369304
31
0
0
LWPOLYLINE
5
114
100
AcDbEntity
8
0
100
AcDbPolyline
90
4
70
1
43
0.0
10
133.44153965363137
20
39.000000000000014
10
133.44153965363142
20
5.8950000000000014
42
-0.99999999999999989
10
130.44153965363137
20
5.8950000000000014
10
130.44153965363137
20
39.000000000000014
42
-0.99999999999999989
0
LWPOLYLINE
5
115
100
AcDbEntity
8
0
100
AcDbPolyline
90
4
70
1
43
0.0
10
133.44153965363137
20
51
42
-0.99999999999999989
10
130.44153965363137
20
51
10
130.44153965363137
20
84.105000000000004
42
-0.99999999999999989
10
133.44153965363137
20
84.105000000000004
0
LINE
5
116
100
AcDbEntity
8
0
100
AcDbLine
10
130.44153965363137
20
69.499999999999972
30
0
11
130.44153965363137
21
69.500001035630703
31
0
0
LINE
5
117
100
AcDbEntity
8
0
100
AcDbLine
10
130.44153965363137
20
20.500000000000036
30
0
11
130.44153965363137
21
20.499998964369304
31
0
0
LWPOLYLINE
5
118
100
AcDbEntity
8
0
100
AcDbPolyline
90
4
70
1
43
0.0
10
140.48807811516983
20
39.000000000000014
10
140.48807811516986
20
5.8950000000000014
42
-0.99999999999999989
10
137.48807811516983
20
5.8950000000000014
10
137.48807811516983
20
39.000000000000014
42
-0.99999999999999989
0
LWPOLYLINE
5
119
100
AcDbEntity
8
0
100
AcDbPolyline
90
4
70
1
43
0.0
10
140.48807811516983
20
51
42
-0.99999999999999989
10
137.48807811516983
20
51
10
137.48807811516983
20
84.105000000000004
42
-0.99999999999999989
10
140.48807811516983
20
84.105000000000004
0
LINE
5
120
100
AcDbEntity
8
0
100
AcDbLine
10
137.48807811516983
20
69.499999999999972
30
0
11
137.48807811516983
21
69.500001035630703
31
0
0
LINE
5
121
100
AcDbEntity
8
0
100
AcDbLine
10
137.48807811516983
20
20.500000000000036
30
0
11
137.48807811516983
21
20.499998964369304
31
0
0
LWPOLYLINE
5
122
100
AcDbEntity
8
0
100
AcDbPolyline
90
4
70
1
43
0.0
10
147.53461657670829
20
39.000000000000014
10
147.53461657670834
20
5.8950000000000014
42
-0.99999999999999989
10
144.53461657670829
20
5.8950000000000014
10
144.53461657670829
20
39.000000000000014
42
-0.99999999999999989
0
LWPOLYLINE
5
123
100
AcDbEntity
8
0
100
AcDbPolyline
90
4
70
1
43
0.0
10
147.53461657670829
20
51
42
-0.99999999999999989
10
144.53461657670829
20
51
10
144.53461657670829
20
84.105000000000004
42
-0.99999999999999989
10
147.53461657670829
20
84.105000000000004
0
LINE
5
124
100
AcDbEntity
8
0
100
AcDbLine
10
144.53461657670829
20
69.499999999999972
30
0
11
144.53461657670829
21
69.500001035630703
31
0
0
LINE
5
125
100
AcDbEntity
8
0
100
AcDbLine
10
144.53461657670829
20
20.500000000000036
30
0
11
144.53461657670829
21
20.499998964369304
31
0
0
LWPOLYLINE
5
126
100
AcDbEntity
8
0
100
AcDbPolyline
90
4
70
1
43
0.0
10
154.58115503824675
20
39.000000000000014
10
154.58115503824678
20
5.8950000000000014
42
-0.99999999999999989
10
151.58115503824675
20
5.8950000000000014
10
151.58115503824675
20
39.000000000000014
42
-0.99999999999999989
0
LWPOLYLINE
5
127
100
AcDbEntity
8
0
100
AcDbPolyline
90
4
70
1
43
0.0
10
154.58115503824675
20
51
42
-0.99999999999999989
10
151.58115503824675
20
51
10
151.58115503824675
20
84.105000000000004
42
-0.99999999999999989
10
154.58115503824675
20
84.105000000000004
0
LINE
5
128
100
AcDbEntity
8
0
100
AcDbLine
10
151.58115503824675
20
69.499999999999972
30
0
11
151.58115503824675
21
69.500001035630703
31
0
0
LINE
5
129
100
AcDbEntity
8
0
100
AcDbLine
10
151.58115503824675
20
20.500000000000036
30
0
11
151.58115503824675
21
20.499998964369304
31
0
0
LWPOLYLINE
5
130
100
AcDbEntity
8
0
100
AcDbPolyline
90
4
70
1
43
0.0
10
161.62769349978521
20
39.000000000000014
10
161.62769349978527
20
5.8950000000000014
42
-0.99999999999999989
10
158.62769349978521
20
5.8950000000000014
10
158.62769349978524
20
39.000000000000014
42
-0.99999999999999989
0
LWPOLYLINE
5
131
100
AcDbEntity
8
0
100
AcDbPolyline
90
4
70
1
43
0.0
10
161.62769349978527
20
51
42
-0.99999999999999989
10
158.62769349978521
20
51
10
158.62769349978524
20
84.105000000000004
42
-0.99999999999999989
10
161.62769349978521
20
84.105000000000004
0
LINE
5
132
100
AcDbEntity
8
0
100
AcDbLine
10
158.62769349978521
20
69.499999999999972
30
0
11
158.62769349978521
21
69.500001035630703
31
0
0
LINE
5
133
100
AcDbEntity
8
0
100
AcDbLine
10
158.62769349978521
20
20.500000000000036
30
0
11
158.62769349978521
21
20.499998964369304
31
0
0
LWPOLYLINE
5
134
100
AcDbEntity
8
0
100
AcDbPolyline
90
4
70
1
43
0.0
10
168.67423196132367
20
39.000000000000014
10
168.6742319613237
20
5.8950000000000014
42
-0.99999999999999989
10
165.67423196132367
20
5.8950000000000014
10
165.6742319613237
20
39.000000000000014
42
-0.99999999999999989
0
LWPOLYLINE
5
135
100
AcDbEntity
8
0
100
AcDbPolyline
90
4
70
1
43
0.0
10
168.6742319613237
20
51
42
-0.99999999999999989
10
165.67423196132367
20
51
10
165.6742319613237
20
84.105000000000004
42
-0.99999999999999989
10
168.67423196132367
20
84.105000000000004
0
LINE
5
136
100
AcDbEntity
8
0
100
AcDbLine
10
165.67423196132367
20
69.499999999999972
30
0
11
165.67423196132367
21
69.500001035630703
31
0
0
LINE
5
137
100
AcDbEntity
8
0
100
AcDbLine
10
165.67423196132367
20
20.500000000000036
30
0
11
165.67423196132367
21
20.499998964369304
31
0
0
LWPOLYLINE
5
138
100
AcDbEntity
8
0
100
AcDbPolyline
90
4
70
1
43
0.0
10
175.72077042286213
20
39.000000000000014
10
175.72077042286219
20
5.8950000000000014
42
-0.99999999999999989
10
172.72077042286213
20
5.8950000000000014
10
172.72077042286216
20
39.000000000000014
42
-0.99999999999999989
0
LWPOLYLINE
5
139
100
AcDbEntity
8
0
100
AcDbPolyline
90
4
70
1
43
0.0
10
175.72077042286219
20
51
42
-0.99999999999999989
10
172.72077042286213
20
51
10
172.72077042286216
20
84.105000000000004
42
-0.99999999999999989
10
175.72077042286213
20
84.105000000000004
0
LINE
5
140
100
AcDbEntity
8
0
100
AcDbLine
10
172.72077042286213
20
69.499999999999972
30
0
11
172.72077042286213
21
69.500001035630703
31
0
0
LINE
5
141
100
AcDbEntity
8
0
100
AcDbLine
10
172.72077042286213
20
20.500000000000036
30
0
11
172.72077042286213
21
20.499998964369304
31
0
0
LWPOLYLINE
5
142
100
AcDbEntity
8
0
100
AcDbPolyline
90
4
70
1
43
0.0
10
182.76730888440059
20
39.000000000000014
10
182.76730888440062
20
5.8950000000000014
42
-0.99999999999999989
10
179.76730888440059
20
5.8950000000000014
10
179.76730888440062
20
39.000000000000014
42
-0.99999999999999989
0
LWPOLYLINE
5
143
100
AcDbEntity
8
0
100
AcDbPolyline
90
4
70
1
43
0.0
10
182.76730888440062
20
51
42
-0.99999999999999989
10
179.76730888440059
20
51
10
179.76730888440062
20
84.105000000000004
42
-0.99999999999999989
10
182.76730888440059
20
84.105000000000004
0
LINE
5
144
100
AcDbEntity
8
0
100
AcDbLine
10
179.76730888440059
20
69.499999999999972
30
0
11
179.76730888440059
21
69.500001035630703
31
0
0
LINE
5
145
100
AcDbEntity
8
0
100
AcDbLine
10
179.76730888440059
20
20.500000000000036
30
0
11
179.76730888440059
21
20.499998964369304
31
0
0
LWPOLYLINE
5
146
100
AcDbEntity
8
0
100
AcDbPolyline
90
4
70
1
43
0.0
10
189.81384734593905
20
39.000000000000014
10
189.81384734593911
20
5.8950000000000014
42
-0.99999999999999989
10
186.81384734593905
20
5.8950000000000014
10
186.81384734593908
20
39.000000000000014
42
-0.99999999999999989
0
LWPOLYLINE
5
147
100
AcDbEntity
8
0
100
AcDbPolyline
90
4
70
1
43
0.0
10
189.81384734593911
20
51
42
-0.99999999999999989
10
186.81384734593905
20
51
10
186.81384734593908
20
84.105000000000004
42
-0.99999999999999989
10
189.81384734593905
20
84.105000000000004
0
LINE
5
148
100
AcDbEntity
8
0
100
AcDbLine
10
186.81384734593905
20
69.499999999999972
30
0
11
186.81384734593905
21
69.500001035630703
31
0
0
LINE
5
149
100
AcDbEntity
8
0
100
AcDbLine
10
186.81384734593905
20
20.500000000000036
30
0
11
186.81384734593905
21
20.499998964369304
31
0
0
LWPOLYLINE
5
150
100
AcDbEntity
8
0
100
AcDbPolyline
90
4
70
1
43
0.0
10
196.86038580747751
20
39.000000000000014
10
196.86038580747754
20
5.8950000000000014
42
-0.99999999999999989
10
193.86038580747751
20
5.8950000000000014
10
193.86038580747754
20
39.000000000000014
42
-0.99999999999999989
0
LWPOLYLINE
5
151
100
AcDbEntity
8
0
100
AcDbPolyline
90
4
70
1
43
0.0
10
196.86038580747754
20
51
42
-0.99999999999999989
10
193.86038580747751
20
51
10
193.86038580747754
20
84.105000000000004
42
-0.99999999999999989
10
196.86038580747751
20
84.105000000000004
0
LINE
5
152
100
AcDbEntity
8
0
100
AcDbLine
10
193.86038580747751
20
69.499999999999972
30
0
11
193.86038580747751
21
69.500001035630703
31
0
0
LINE
5
153
100
AcDbEntity
8
0
100
AcDbLine
10
193.86038580747751
20
20.500000000000036
30
0
11
193.86038580747751
21
20.499998964369304
31
0
0
LWPOLYLINE
5
154
100
AcDbEntity
8
0
100
AcDbPolyline
90
4
70
1
43
0.0
10
203.90692426901597
20
39.000000000000014
10
203.90692426901603
20
5.8950000000000014
42
-0.99999999999999989
10
200.90692426901597
20
5.8950000000000014
10
200.906924269016
20
39.000000000000014
42
-0.99999999999999989
0
LWPOLYLINE
5
155
100
AcDbEntity
8
0
100
AcDbPolyline
90
4
70
1
43
0.0
10
203.90692426901603
20
51
42
-0.99999999999999989
10
200.90692426901597
20
51
10
200.906924269016
20
84.105000000000004
42
-0.99999999999999989
10
203.90692426901597
20
84.105000000000004
0
LINE
5
156
100
AcDbEntity
8
0
100
AcDbLine
10
200.90692426901597
20
69.499999999999972
30
0
11
200.90692426901597
21
69.500001035630703
31
0
0
LINE
5
157
100
AcDbEntity
8
0
100
AcDbLine
10
200.90692426901597
20
20.500000000000036
30
0
11
200.90692426901597
21
20.499998964369304
31
0
0
LWPOLYLINE
5
158
100
AcDbEntity
8
0
100
AcDbPolyline
90
4
70
1
43
0.0
10
210.95346273055446
20
39.000000000000014
10
210.95346273055455
20
5.8950000000000014
42
-0.99999999999999989
10
207.95346273055443
20
5.8950000000000014
10
207.95346273055443
20
39.000000000000014
42
-0.99999999999999989
0
LWPOLYLINE
5
159
100
AcDbEntity
8
0
100
AcDbPolyline
90
4
70
1
43
0.0
10
210.95346273055446
20
51
42
-0.99999999999999989
10
207.95346273055443
20
51
10
207.95346273055443
20
84.105000000000004
42
-0.99999999999999989
10
210.95346273055446
20
84.105000000000004
0
LINE
5
160
100
AcDbEntity
8
0
100
AcDbLine
10
207.95346273055443
20
69.499999999999972
30
0
11
207.95346273055443
21
69.500001035630703
31
0
0
LINE
5
161
100
AcDbEntity
8
0
100
AcDbLine
10
207.95346273055443
20
20.500000000000036
30
0
11
207.95346273055443
21
20.499998964369304
31
0
0
LWPOLYLINE
5
162
100
AcDbEntity
8
0
100
AcDbPolyline
90
4
70
1
43
0.0
10
218.00000119209295
20
39.000000000000014
10
218.00000119209301
20
5.8950000000000014
42
-0.99999999999999989
10
215.0000011920929
20
5.8950000000000014
10
215.0000011920929
20
39.000000000000014
42
-0.99999999999999989
0
LWPOLYLINE
5
163
100
AcDbEntity
8
0
100
AcDbPolyline
90
4
70
1
43
0.0
10
218.00000119209295
20
51
42
-0.99999999999999989
10
215.0000011920929
20
51
10
215.0000011920929
20
84.105000000000004
42
-0.99999999999999989
10
218.00000119209295
20
84.105000000000004
0
LINE
5
164
100
AcDbEntity
8
0
100
AcDbLine
10
215.0000011920929
20
69.499999999999972
30
0
11
215.0000011920929
21
69.500001035630703
31
0
0
LINE
5
165
100
AcDbEntity
8
0
100
AcDbLine
10
215.0000011920929
20
20.500000000000036
30
0
11
215.0000011920929
21
20.499998964369304
31
0
0
LWPOLYLINE
5
166
100
AcDbEntity
8
0
100
AcDbPolyline
90
4
70
1
43
0.0
10
116.39500119209291
20
47.669079994421423
42
-0.99999999999999989
10
119.39500119209292
20
47.669079994421423
10
119.39500119209293
20
14.564079994421411
42
-0.99999999999999989
10
116.39500119209289
20
14.564079994421411
0
LINE
5
167
100
AcDbEntity
8
0
100
AcDbLine
10
119.43883615969347
20
29.734011464768379
30
0
11
119.43883630354708
21
29.734010538526586
31
0
0
LWPOLYLINE
5
168
100
AcDbEntity
8
0
100
AcDbPolyline
90
4
70
1
43
0.0
10
112.34800119209291
20
47.669079994421423
10
112.34800119209294
20
14.564079994421411
42
-0.99999999999999989
10
109.34800119209288
20
14.564079994421411
10
109.34800119209291
20
47.669079994421423
42
-0.99999999999999989
0
LWPOLYLINE
5
169
100
AcDbEntity
8
0
100
AcDbPolyline
90
4
70
1
43
0.0
10
105.30100119209291
20
47.669079994421423
10
105.30100119209293
20
14.564079994421411
42
-0.99999999999999989
10
102.30100119209288
20
14.564079994421411
10
102.3010011920929
20
47.669079994421423
42
-0.99999999999999989
0
LWPOLYLINE
5
170
100
AcDbEntity
8
0
100
AcDbPolyline
90
4
70
1
43
0.0
10
98.2540011920929
20
47.669079994421423
10
98.254001192092915
20
14.564079994421411
42
-0.99999999999999989
10
95.254001192092872
20
14.564079994421411
10
95.254001192092886
20
47.669079994421423
42
-0.99999999999999989
0
LWPOLYLINE
5
171
100
AcDbEntity
8
0
100
AcDbPolyline
90
4
70
1
43
0.0
10
91.207001192092889
20
47.669079994421423
10
91.207001192092903
20
14.564079994421411
42
-0.99999999999999989
10
88.207001192092861
20
14.564079994421411
10
88.207001192092889
20
47.669079994421423
42
-0.99999999999999989
0
CIRCLE
5
172
100
AcDbEntity
8
0
100
AcDbCircle
10
102.89500119209291
20
69.5
30
0
40
5.0000000000000044
210
0
220
0
230
1
0
LINE
5
173
100
AcDbEntity
8
0
100
AcDbLine
10
89.343501192092901
20
9.4999999999999929
30
0
11
89.343501192092901
21
10.849999999999993
31
0
0
LINE
5
174
100
AcDbEntity
8
0
100
AcDbLine
10
94.238501192092897
20
9.4999999999999929
30
0
11
94.238501192092897
21
10.849999999999993
31
0
0
LINE
5
175
100
AcDbEntity
8
0
100
AcDbLine
10
89.343501192092901
20
10.849999999999993
30
0
11
94.238501192092897
21
10.849999999999993
31
0
0
LINE
5
176
100
AcDbEntity
8
0
100
AcDbLine
10
89.343501192092901
20
9.4999999999999929
30
0
11
89.343501192092901
21
8.1499999999999932
31
0
0
LINE
5
177
100
AcDbEntity
8
0
100
AcDbLine
10
89.343501192092901
20
8.1499999999999932
30
0
11
94.238501192092897
21
8.1499999999999932
31
0
0
LINE
5
178
100
AcDbEntity
8
0
100
AcDbLine
10
94.238501192092897
20
9.4999999999999929
30
0
11
94.238501192092897
21
8.1499999999999932
31
0
0
LINE
5
179
100
AcDbEntity
8
0
100
AcDbLine
10
111.5515011920929
20
9.4999999999999929
30
0
11
111.5515011920929
21
10.849999999999993
31
0
0
LINE
5
180
100
AcDbEntity
8
0
100
AcDbLine
10
116.4465011920929
20
9.4999999999999929
30
0
11
116.4465011920929
21
10.849999999999993
31
0
0
LINE
5
181
100
AcDbEntity
8
0
100
AcDbLine
10
111.5515011920929
20
10.849999999999993
30
0
11
116.4465011920929
21
10.849999999999993
31
0
0
LINE
5
182
100
AcDbEntity
8
0
100
AcDbLine
10
111.5515011920929
20
8.1499999999999932
30
0
11
116.4465011920929
21
8.1499999999999932
31
0
0
LINE
5
183
100
AcDbEntity
8
0
100
AcDbLine
10
111.5515011920929
20
9.4999999999999929
30
0
11
111.5515011920929
21
8.1499999999999932
31
0
0
LINE
5
184
100
AcDbEntity
8
0
100
AcDbLine
10
116.4465011920929
20
9.4999999999999929
30
0
11
116.4465011920929
21
8.1499999999999932
31
0
0
LINE
5
185
100
AcDbEntity
8
0
100
AcDbLine
10
90.290001192092888
20
68.052499999999981
30
0
11
85.49000119209289
21
68.052499999999981
31
0
0
LINE
5
186
100
AcDbEntity
8
0
100
AcDbLine
10
90.290001192092888
20
70.947499999999991
30
0
11
85.49000119209289
21
70.947499999999991
31
0
0
LINE
5
187
100
AcDbEntity
8
0
100
AcDbLine
10
85.49000119209289
20
68.052499999999981
30
0
11
85.49000119209289
21
70.947499999999991
31
0
0
LINE
5
188
100
AcDbEntity
8
0
100
AcDbLine
10
101.4475011920929
20
56.894999999999989
30
0
11
101.4475011920929
21
52.094999999999985
31
0
0
LINE
5
189
100
AcDbEntity
8
0
100
AcDbLine
10
101.44750119209291
20
56.894999999999989
30
0
11
102.89500119209292
21
56.894999999999989
31
0
0
LINE
5
190
100
AcDbEntity
8
0
100
AcDbLine
10
104.34250119209293
20
56.894999999999989
30
0
11
102.89500119209292
21
56.894999999999989
31
0
0
LINE
5
191
100
AcDbEntity
8
0
100
AcDbLine
10
101.4475011920929
20
56.894999999999989
30
0
11
102.89500119209291
21
56.894999999999989
31
0
0
LINE
5
192
100
AcDbEntity
8
0
100
AcDbLine
10
104.34250119209293
20
56.894999999999989
30
0
11
104.34250119209293
21
52.094999999999985
31
0
0
LINE
5
193
100
AcDbEntity
8
0
100
AcDbLine
10
104.3425011920929
20
56.894999999999989
30
0
11
102.89500119209291
21
56.894999999999989
31
0
0
LINE
5
194
100
AcDbEntity
8
0
100
AcDbLine
10
104.34250119209293
20
52.094999999999985
30
0
11
101.4475011920929
21
52.094999999999985
31
0
0
LINE
5
195
100
AcDbEntity
8
0
100
AcDbLine
10
115.5000011920929
20
68.052499999999995
30
0
11
120.30000119209291
21
68.052499999999995
31
0
0
LINE
5
196
100
AcDbEntity
8
0
100
AcDbLine
10
115.5000011920929
20
68.052500000000023
30
0
11
115.5000011920929
21
69.500000000000014
31
0
0
LINE
5
197
100
AcDbEntity
8
0
100
AcDbLine
10
115.5000011920929
20
70.947500000000019
30
0
11
115.5000011920929
21
69.500000000000014
31
0
0
LINE
5
198
100
AcDbEntity
8
0
100
AcDbLine
10
115.5000011920929
20
68.052499999999995
30
0
11
115.5000011920929
21
69.5
31
0
0
LINE
5
199
100
AcDbEntity
8
0
100
AcDbLine
10
115.5000011920929
20
70.947500000000019
30
0
11
120.30000119209291
21
70.947500000000019
31
0
0
LINE
5
200
100
AcDbEntity
8
0
100
AcDbLine
10
115.5000011920929
20
70.947500000000005
30
0
11
115.5000011920929
21
69.5
31
0
0
LINE
5
201
100
AcDbEntity
8
0
100
AcDbLine
10
120.30000119209291
20
70.947500000000019
30
0
11
120.30000119209291
21
68.052499999999995
31
0
0
LINE
5
202
100
AcDbEntity
8
0
100
AcDbLine
10
104.34250119209293
20
82.104999999999976
30
0
11
104.34250119209293
21
86.904999999999987
31
0
0
LINE
5
203
100
AcDbEntity
8
0
100
AcDbLine
10
104.34250119209288
20
82.104999999999976
30
0
11
102.89500119209291
21
82.104999999999976
31
0
0
LINE
5
204
100
AcDbEntity
8
0
100
AcDbLine
10
101.44750119209289
20
82.104999999999976
30
0
11
102.89500119209291
21
82.104999999999976
31
0
0
LINE
5
205
100
AcDbEntity
8
0
100
AcDbLine
10
104.34250119209293
20
82.104999999999976
30
0
11
102.89500119209291
21
82.104999999999976
31
0
0
LINE
5
206
100
AcDbEntity
8
0
100
AcDbLine
10
101.44750119209289
20
82.104999999999976
30
0
11
101.44750119209289
21
86.904999999999987
31
0
0
LINE
5
207
100
AcDbEntity
8
0
100
AcDbLine
10
101.44750119209291
20
82.104999999999976
30
0
11
102.89500119209291
21
82.104999999999976
31
0
0
LINE
5
208
100
AcDbEntity
8
0
100
AcDbLine
10
101.44750119209289
20
86.904999999999987
30
0
11
104.34250119209293
21
86.904999999999987
31
0
0
ENDSEC
0
SECTION
2
OBJECTS
0
DICTIONARY
5
C
100
AcDbDictionary
3
ACAD_GROUP
350
D
3
ACAD_MLINESTYLE
350
17
0
DICTIONARY
5
D
100
AcDbDictionary
0
DICTIONARY
5
1A
330
C
100
AcDbDictionary
0
DICTIONARY
5
17
100
AcDbDictionary
0
ENDSEC
0
EOF
