<?xml version="1.0" encoding="UTF-8" standalone="no"?>
<!-- Created with Inkscape (http://www.inkscape.org/) -->

<svg
   width="210mm"
   height="297mm"
   viewBox="0 0 210 297"
   version="1.1"
   id="svg1"
   xml:space="preserve"
   inkscape:version="1.3.2 (091e20e, 2023-11-25, custom)"
   sodipodi:docname="support de masque.svg"
   xmlns:inkscape="http://www.inkscape.org/namespaces/inkscape"
   xmlns:sodipodi="http://sodipodi.sourceforge.net/DTD/sodipodi-0.dtd"
   xmlns="http://www.w3.org/2000/svg"
   xmlns:svg="http://www.w3.org/2000/svg"><sodipodi:namedview
     id="namedview1"
     pagecolor="#ffffff"
     bordercolor="#000000"
     borderopacity="0.25"
     inkscape:showpageshadow="2"
     inkscape:pageopacity="0.0"
     inkscape:pagecheckerboard="0"
     inkscape:deskcolor="#d1d1d1"
     inkscape:document-units="mm"
     inkscape:zoom="1.0255231"
     inkscape:cx="515.34677"
     inkscape:cy="284.73275"
     inkscape:window-width="1920"
     inkscape:window-height="1010"
     inkscape:window-x="893"
     inkscape:window-y="-6"
     inkscape:window-maximized="1"
     inkscape:current-layer="layer1" /><defs
     id="defs1"><marker
       id="DistanceX"
       orient="auto"
       refX="0.0"
       refY="0.0"
       style="overflow:visible"><path
         d="M 3,-3 L -3,3 M 0,-5 L  0,5"
         style="stroke:#000000; stroke-width:0.5"
         id="path1" /></marker><pattern
       id="Hatch"
       patternUnits="userSpaceOnUse"
       width="8"
       height="8"
       x="0"
       y="0"><path
         d="M8 4 l-4,4"
         stroke="#000000"
         stroke-width="0.25"
         linecap="square"
         id="path2" /><path
         d="M6 2 l-4,4"
         stroke="#000000"
         stroke-width="0.25"
         linecap="square"
         id="path3" /><path
         d="M4 0 l-4,4"
         stroke="#000000"
         stroke-width="0.25"
         linecap="square"
         id="path4" /></pattern><symbol
       id="*MODEL_SPACE" /><symbol
       id="*PAPER_SPACE" /><marker
       id="DistanceX-7"
       orient="auto"
       refX="0.0"
       refY="0.0"
       style="overflow:visible"><path
         d="M 3,-3 L -3,3 M 0,-5 L  0,5"
         style="stroke:#000000; stroke-width:0.5"
         id="path1-8" /></marker><pattern
       id="Hatch-7"
       patternUnits="userSpaceOnUse"
       width="8"
       height="8"
       x="0"
       y="0"><path
         d="M8 4 l-4,4"
         stroke="#000000"
         stroke-width="0.25"
         linecap="square"
         id="path2-9" /><path
         d="M6 2 l-4,4"
         stroke="#000000"
         stroke-width="0.25"
         linecap="square"
         id="path3-7" /><path
         d="M4 0 l-4,4"
         stroke="#000000"
         stroke-width="0.25"
         linecap="square"
         id="path4-5" /></pattern><symbol
       id="*MODEL_SPACE-7" /><symbol
       id="*PAPER_SPACE-3" /><marker
       id="DistanceX-9"
       orient="auto"
       refX="0.0"
       refY="0.0"
       style="overflow:visible"><path
         d="M 3,-3 L -3,3 M 0,-5 L  0,5"
         style="stroke:#000000; stroke-width:0.5"
         id="path1-5" /></marker><pattern
       id="Hatch-9"
       patternUnits="userSpaceOnUse"
       width="8"
       height="8"
       x="0"
       y="0"><path
         d="M8 4 l-4,4"
         stroke="#000000"
         stroke-width="0.25"
         linecap="square"
         id="path2-6" /><path
         d="M6 2 l-4,4"
         stroke="#000000"
         stroke-width="0.25"
         linecap="square"
         id="path3-6" /><path
         d="M4 0 l-4,4"
         stroke="#000000"
         stroke-width="0.25"
         linecap="square"
         id="path4-9" /></pattern><symbol
       id="*MODEL_SPACE-0" /><symbol
       id="*PAPER_SPACE-8" /><marker
       id="DistanceX-0"
       orient="auto"
       refX="0.0"
       refY="0.0"
       style="overflow:visible"><path
         d="M 3,-3 L -3,3 M 0,-5 L  0,5"
         style="stroke:#000000; stroke-width:0.5"
         id="path1-1" /></marker><pattern
       id="Hatch-2"
       patternUnits="userSpaceOnUse"
       width="8"
       height="8"
       x="0"
       y="0"><path
         d="M8 4 l-4,4"
         stroke="#000000"
         stroke-width="0.25"
         linecap="square"
         id="path2-7" /><path
         d="M6 2 l-4,4"
         stroke="#000000"
         stroke-width="0.25"
         linecap="square"
         id="path3-62" /><path
         d="M4 0 l-4,4"
         stroke="#000000"
         stroke-width="0.25"
         linecap="square"
         id="path4-0" /></pattern><symbol
       id="*MODEL_SPACE-3" /><symbol
       id="*PAPER_SPACE-0" /><marker
       id="DistanceX-1"
       orient="auto"
       refX="0.0"
       refY="0.0"
       style="overflow:visible"><path
         d="M 3,-3 L -3,3 M 0,-5 L  0,5"
         style="stroke:#000000; stroke-width:0.5"
         id="path1-57" /></marker><pattern
       id="Hatch-5"
       patternUnits="userSpaceOnUse"
       width="8"
       height="8"
       x="0"
       y="0"><path
         d="M8 4 l-4,4"
         stroke="#000000"
         stroke-width="0.25"
         linecap="square"
         id="path2-2" /><path
         d="M6 2 l-4,4"
         stroke="#000000"
         stroke-width="0.25"
         linecap="square"
         id="path3-77" /><path
         d="M4 0 l-4,4"
         stroke="#000000"
         stroke-width="0.25"
         linecap="square"
         id="path4-3" /></pattern><symbol
       id="*MODEL_SPACE-2" /><symbol
       id="*PAPER_SPACE-82" /><marker
       id="DistanceX-07"
       orient="auto"
       refX="0.0"
       refY="0.0"
       style="overflow:visible"><path
         d="M 3,-3 L -3,3 M 0,-5 L  0,5"
         style="stroke:#000000; stroke-width:0.5"
         id="path1-19" /></marker><pattern
       id="Hatch-90"
       patternUnits="userSpaceOnUse"
       width="8"
       height="8"
       x="0"
       y="0"><path
         d="M8 4 l-4,4"
         stroke="#000000"
         stroke-width="0.25"
         linecap="square"
         id="path2-96" /><path
         d="M6 2 l-4,4"
         stroke="#000000"
         stroke-width="0.25"
         linecap="square"
         id="path3-79" /><path
         d="M4 0 l-4,4"
         stroke="#000000"
         stroke-width="0.25"
         linecap="square"
         id="path4-8" /></pattern><symbol
       id="*MODEL_SPACE-00" /><symbol
       id="*PAPER_SPACE-34" /></defs><g
     inkscape:label="Calque 1"
     inkscape:groupmode="layer"
     id="layer1"><g
       inkscape:label="0"
       id="g113"
       transform="matrix(0.26458333,0,0,0.26458333,-49.837839,-44.756727)"><path
         d="M 857.95276,1122.5197 H 291.02363 V 782.36221 h 566.92913 z"
         style="fill:none;stroke:#000000"
         id="path5" /><path
         style="fill:none;stroke:#000000"
         d="m 291.024,782.362 h 11.338"
         id="path6" /><path
         style="fill:none;stroke:#000000"
         d="M 291.024,793.701 V 782.362"
         id="path7" /><path
         d="m 313.30394,793.70079 h -10.94173 v 10.94173 h 10.94173 z"
         style="fill:none;stroke:#000000"
         id="path8" /><path
         d="m 846.61418,793.70079 v 10.94173 h -10.94173 v -10.94173 z"
         style="fill:none;stroke:#000000"
         id="path9" /><path
         d="m 302.36221,1100.2394 h 10.94173 v 10.9417 h -10.94173 z"
         style="fill:none;stroke:#000000"
         id="path10" /><path
         d="m 835.67245,1111.1811 h 10.94173 v -10.9417 h -10.94173 z"
         style="fill:none;stroke:#000000"
         id="path11" /><path
         style="fill:none;stroke:#000000"
         d="m 341.254,854.372 v 5.471"
         id="path12" /><path
         style="fill:none;stroke:#000000"
         d="m 341.254,865.313 v -5.47"
         id="path13" /><path
         style="fill:none;stroke:#000000"
         d="m 341.254,854.372 v 5.471"
         id="path14" /><path
         style="fill:none;stroke:#000000"
         d="m 341.254,865.313 v -5.47"
         id="path15" /><path
         d="M 477.71339,929.76378 V 804.64252 a 5.669291,5.669291 0 0 0 -11.33858,0 v 125.12126 a 5.669291,5.669291 0 0 0 11.33858,0 z"
         style="fill:none;stroke:#000000"
         id="path16" /><path
         d="m 477.71339,1100.2394 a 5.669291,5.669291 0 0 1 -11.33858,0 V 975.11811 a 5.669291,5.669291 0 0 1 11.33858,0 z"
         style="fill:none;stroke:#000000"
         id="path17" /><path
         style="fill:none;stroke:#000000"
         d="m 466.375,1045.04 v 0"
         id="path18" /><path
         d="m 504.34598,975.11811 v 125.12129 a 5.669295,5.669295 0 0 1 -11.33859,0 V 975.11811 a 5.669295,5.669295 0 0 1 11.33859,0 z"
         style="fill:none;stroke:#000000"
         id="path19" /><path
         d="m 504.34598,929.76378 a 5.669295,5.669295 0 0 1 -11.33859,0 V 804.64252 a 5.669295,5.669295 0 0 1 11.33859,0 z"
         style="fill:none;stroke:#000000"
         id="path20" /><path
         style="fill:none;stroke:#000000"
         d="m 493.007,859.843 v 0"
         id="path21" /><path
         style="fill:none;stroke:#000000"
         d="m 493.007,1045.04 v 0"
         id="path22" /><path
         d="m 530.97856,975.11811 v 125.12129 a 5.6692915,5.6692915 0 0 1 -11.33858,0 V 975.11811 a 5.6692915,5.6692915 0 0 1 11.33858,0 z"
         style="fill:none;stroke:#000000"
         id="path23" /><path
         d="m 530.97856,929.76378 a 5.6692915,5.6692915 0 0 1 -11.33858,0 V 804.64252 a 5.6692915,5.6692915 0 0 1 11.33858,0 z"
         style="fill:none;stroke:#000000"
         id="path24" /><path
         style="fill:none;stroke:#000000"
         d="m 519.64,859.843 v 0"
         id="path25" /><path
         style="fill:none;stroke:#000000"
         d="m 519.64,1045.04 v 0"
         id="path26" /><path
         d="m 557.61115,975.11811 v 125.12129 a 5.669291,5.669291 0 0 1 -11.33858,0 V 975.11811 a 5.669291,5.669291 0 0 1 11.33858,0 z"
         style="fill:none;stroke:#000000"
         id="path27" /><path
         d="m 557.61115,929.76378 a 5.669291,5.669291 0 0 1 -11.33858,0 V 804.64252 a 5.669291,5.669291 0 0 1 11.33858,0 z"
         style="fill:none;stroke:#000000"
         id="path28" /><path
         style="fill:none;stroke:#000000"
         d="m 546.273,859.843 v 0"
         id="path29" /><path
         style="fill:none;stroke:#000000"
         d="m 546.273,1045.04 v 0"
         id="path30" /><path
         d="m 584.24374,975.11811 v 125.12129 a 5.669295,5.669295 0 0 1 -11.33859,0 V 975.11811 a 5.669295,5.669295 0 0 1 11.33859,0 z"
         style="fill:none;stroke:#000000"
         id="path31" /><path
         d="m 584.24374,929.76378 a 5.669295,5.669295 0 0 1 -11.33859,0 V 804.64252 a 5.669295,5.669295 0 0 1 11.33859,0 z"
         style="fill:none;stroke:#000000"
         id="path32" /><path
         style="fill:none;stroke:#000000"
         d="m 572.905,859.843 v 0"
         id="path33" /><path
         style="fill:none;stroke:#000000"
         d="m 572.905,1045.04 v 0"
         id="path34" /><path
         d="m 610.87632,975.11811 v 125.12129 a 5.6692915,5.6692915 0 0 1 -11.33858,0 V 975.11811 a 5.6692915,5.6692915 0 0 1 11.33858,0 z"
         style="fill:none;stroke:#000000"
         id="path35" /><path
         d="m 610.87632,929.76378 a 5.6692915,5.6692915 0 0 1 -11.33858,0 V 804.64252 a 5.6692915,5.6692915 0 0 1 11.33858,0 z"
         style="fill:none;stroke:#000000"
         id="path36" /><path
         style="fill:none;stroke:#000000"
         d="m 599.538,859.843 v 0"
         id="path37" /><path
         style="fill:none;stroke:#000000"
         d="m 599.538,1045.04 v 0"
         id="path38" /><path
         d="m 637.50891,975.11811 v 125.12129 a 5.669291,5.669291 0 0 1 -11.33858,0 V 975.11811 a 5.669291,5.669291 0 0 1 11.33858,0 z"
         style="fill:none;stroke:#000000"
         id="path39" /><path
         d="m 637.50891,929.76378 a 5.669291,5.669291 0 0 1 -11.33858,0 V 804.64252 a 5.669291,5.669291 0 0 1 11.33858,0 z"
         style="fill:none;stroke:#000000"
         id="path40" /><path
         style="fill:none;stroke:#000000"
         d="m 626.17,859.843 v 0"
         id="path41" /><path
         style="fill:none;stroke:#000000"
         d="m 626.17,1045.04 v 0"
         id="path42" /><path
         d="m 664.14149,975.11811 v 125.12129 a 5.6692915,5.6692915 0 0 1 -11.33858,0 V 975.11811 a 5.6692915,5.6692915 0 0 1 11.33858,0 z"
         style="fill:none;stroke:#000000"
         id="path43" /><path
         d="m 664.14149,929.76378 a 5.6692915,5.6692915 0 0 1 -11.33858,0 V 804.64252 a 5.6692915,5.6692915 0 0 1 11.33858,0 z"
         style="fill:none;stroke:#000000"
         id="path44" /><path
         style="fill:none;stroke:#000000"
         d="m 652.803,859.843 v 0"
         id="path45" /><path
         style="fill:none;stroke:#000000"
         d="m 652.803,1045.04 v 0"
         id="path46" /><path
         d="m 690.77408,975.11811 v 125.12129 a 5.6692915,5.6692915 0 0 1 -11.33858,0 V 975.11811 a 5.6692915,5.6692915 0 0 1 11.33858,0 z"
         style="fill:none;stroke:#000000"
         id="path47" /><path
         d="m 690.77408,929.76378 a 5.6692915,5.6692915 0 0 1 -11.33858,0 V 804.64252 a 5.6692915,5.6692915 0 0 1 11.33858,0 z"
         style="fill:none;stroke:#000000"
         id="path48" /><path
         style="fill:none;stroke:#000000"
         d="m 679.435,859.843 v 0"
         id="path49" /><path
         style="fill:none;stroke:#000000"
         d="m 679.435,1045.04 v 0"
         id="path50" /><path
         d="m 717.40667,975.11811 v 125.12129 a 5.669295,5.669295 0 0 1 -11.33859,0 V 975.11811 a 5.669295,5.669295 0 0 1 11.33859,0 z"
         style="fill:none;stroke:#000000"
         id="path51" /><path
         d="m 717.40667,929.76378 a 5.669295,5.669295 0 0 1 -11.33859,0 V 804.64252 a 5.669295,5.669295 0 0 1 11.33859,0 z"
         style="fill:none;stroke:#000000"
         id="path52" /><path
         style="fill:none;stroke:#000000"
         d="m 706.068,859.843 v 0"
         id="path53" /><path
         style="fill:none;stroke:#000000"
         d="m 706.068,1045.04 v 0"
         id="path54" /><path
         d="m 744.03925,975.11811 v 125.12129 a 5.669291,5.669291 0 0 1 -11.33858,0 V 975.11811 a 5.669291,5.669291 0 0 1 11.33858,0 z"
         style="fill:none;stroke:#000000"
         id="path55" /><path
         d="m 744.03925,929.76378 a 5.669291,5.669291 0 0 1 -11.33858,0 V 804.64252 a 5.669291,5.669291 0 0 1 11.33858,0 z"
         style="fill:none;stroke:#000000"
         id="path56" /><path
         style="fill:none;stroke:#000000"
         d="m 732.701,859.843 v 0"
         id="path57" /><path
         style="fill:none;stroke:#000000"
         d="m 732.701,1045.04 v 0"
         id="path58" /><path
         d="m 770.67184,975.11811 v 125.12129 a 5.6692915,5.6692915 0 0 1 -11.33858,0 V 975.11811 a 5.6692915,5.6692915 0 0 1 11.33858,0 z"
         style="fill:none;stroke:#000000"
         id="path59" /><path
         d="m 770.67184,929.76378 a 5.6692915,5.6692915 0 0 1 -11.33858,0 V 804.64252 a 5.6692915,5.6692915 0 0 1 11.33858,0 z"
         style="fill:none;stroke:#000000"
         id="path60" /><path
         style="fill:none;stroke:#000000"
         d="m 759.333,859.843 v 0"
         id="path61" /><path
         style="fill:none;stroke:#000000"
         d="m 759.333,1045.04 v 0"
         id="path62" /><path
         d="m 797.30443,975.11811 v 125.12129 a 5.669295,5.669295 0 0 1 -11.33859,0 V 975.11811 a 5.669295,5.669295 0 0 1 11.33859,0 z"
         style="fill:none;stroke:#000000"
         id="path63" /><path
         d="m 797.30443,929.76378 a 5.669295,5.669295 0 0 1 -11.33859,0 V 804.64252 a 5.669295,5.669295 0 0 1 11.33859,0 z"
         style="fill:none;stroke:#000000"
         id="path64" /><path
         style="fill:none;stroke:#000000"
         d="m 785.966,859.843 v 0"
         id="path65" /><path
         style="fill:none;stroke:#000000"
         d="m 785.966,1045.04 v 0"
         id="path66" /><path
         d="m 823.93701,975.11811 v 125.12129 a 5.669291,5.669291 0 0 1 -11.33858,0 V 975.11811 a 5.669291,5.669291 0 0 1 11.33858,0 z"
         style="fill:none;stroke:#000000"
         id="path67" /><path
         d="m 823.93701,929.76378 a 5.669291,5.669291 0 0 1 -11.33858,0 V 804.64252 a 5.669291,5.669291 0 0 1 11.33858,0 z"
         style="fill:none;stroke:#000000"
         id="path68" /><path
         style="fill:none;stroke:#000000"
         d="m 812.598,859.843 v 0"
         id="path69" /><path
         style="fill:none;stroke:#000000"
         d="m 812.598,1045.04 v 0"
         id="path70" /><path
         d="m 439.91811,942.35308 a 5.669295,5.669295 0 0 1 11.33859,0 v 125.12122 a 5.669295,5.669295 0 0 1 -11.33859,0 z"
         style="fill:none;stroke:#000000"
         id="path71" /><path
         style="fill:none;stroke:#000000"
         d="m 451.422,1010.14 v 0"
         id="path72" /><path
         d="m 424.62237,942.35308 v 125.12122 a 5.669295,5.669295 0 0 1 -11.33859,0 V 942.35308 a 5.669295,5.669295 0 0 1 11.33859,0 z"
         style="fill:none;stroke:#000000"
         id="path73" /><path
         d="m 397.98804,942.35308 v 125.12122 a 5.669295,5.669295 0 0 1 -11.33859,0 V 942.35308 a 5.669295,5.669295 0 0 1 11.33859,0 z"
         style="fill:none;stroke:#000000"
         id="path74" /><path
         d="m 371.3537,942.35308 v 125.12122 a 5.669291,5.669291 0 0 1 -11.33858,0 V 942.35308 a 5.669291,5.669291 0 0 1 11.33858,0 z"
         style="fill:none;stroke:#000000"
         id="path75" /><path
         d="m 344.71938,942.35308 v 125.12122 a 5.669295,5.669295 0 0 1 -11.33859,0 V 942.35308 a 5.669295,5.669295 0 0 1 11.33859,0 z"
         style="fill:none;stroke:#000000"
         id="path76" /><path
         d="m 407.79213,859.84252 a 18.89764,18.89764 0 0 0 -37.79528,0 18.89764,18.89764 0 0 0 37.79528,0 z"
         style="fill:none;stroke:#000000"
         id="path77" /><path
         style="fill:none;stroke:#000000"
         d="m 337.676,1086.61 v -5.1"
         id="path78" /><path
         style="fill:none;stroke:#000000"
         d="m 356.177,1086.61 v -5.1"
         id="path79" /><path
         style="fill:none;stroke:#000000"
         d="m 337.676,1081.51 h 18.501"
         id="path80" /><path
         style="fill:none;stroke:#000000"
         d="m 337.676,1086.61 v 5.11"
         id="path81" /><path
         style="fill:none;stroke:#000000"
         d="m 337.676,1091.72 h 18.501"
         id="path82" /><path
         style="fill:none;stroke:#000000"
         d="m 356.177,1086.61 v 5.11"
         id="path83" /><path
         style="fill:none;stroke:#000000"
         d="m 421.612,1086.61 v -5.1"
         id="path84" /><path
         style="fill:none;stroke:#000000"
         d="m 440.113,1086.61 v -5.1"
         id="path85" /><path
         style="fill:none;stroke:#000000"
         d="m 421.612,1081.51 h 18.501"
         id="path86" /><path
         style="fill:none;stroke:#000000"
         d="m 421.612,1091.72 h 18.501"
         id="path87" /><path
         style="fill:none;stroke:#000000"
         d="m 421.612,1086.61 v 5.11"
         id="path88" /><path
         style="fill:none;stroke:#000000"
         d="m 440.113,1086.61 v 5.11"
         id="path89" /><path
         style="fill:none;stroke:#000000"
         d="M 341.254,865.313 H 323.112"
         id="path90" /><path
         style="fill:none;stroke:#000000"
         d="M 341.254,854.372 H 323.112"
         id="path91" /><path
         style="fill:none;stroke:#000000"
         d="M 323.112,865.313 V 854.372"
         id="path92" /><path
         style="fill:none;stroke:#000000"
         d="m 383.424,907.483 v 18.142"
         id="path93" /><path
         style="fill:none;stroke:#000000"
         d="m 383.424,907.483 h 5.47"
         id="path94" /><path
         style="fill:none;stroke:#000000"
         d="m 394.365,907.483 h -5.471"
         id="path95" /><path
         style="fill:none;stroke:#000000"
         d="m 383.424,907.483 h 5.47"
         id="path96" /><path
         style="fill:none;stroke:#000000"
         d="m 394.365,907.483 v 18.142"
         id="path97" /><path
         style="fill:none;stroke:#000000"
         d="m 394.365,907.483 h -5.471"
         id="path98" /><path
         style="fill:none;stroke:#000000"
         d="M 394.365,925.625 H 383.424"
         id="path99" /><path
         style="fill:none;stroke:#000000"
         d="m 436.535,865.313 h 18.142"
         id="path100" /><path
         style="fill:none;stroke:#000000"
         d="m 436.535,865.313 v -5.47"
         id="path101" /><path
         style="fill:none;stroke:#000000"
         d="m 436.535,854.372 v 5.471"
         id="path102" /><path
         style="fill:none;stroke:#000000"
         d="m 436.535,865.313 v -5.47"
         id="path103" /><path
         style="fill:none;stroke:#000000"
         d="m 436.535,854.372 h 18.142"
         id="path104" /><path
         style="fill:none;stroke:#000000"
         d="m 436.535,854.372 v 5.471"
         id="path105" /><path
         style="fill:none;stroke:#000000"
         d="m 454.677,854.372 v 10.941"
         id="path106" /><path
         style="fill:none;stroke:#000000"
         d="M 394.365,812.202 V 794.06"
         id="path107" /><path
         style="fill:none;stroke:#000000"
         d="m 394.365,812.202 h -5.471"
         id="path108" /><path
         style="fill:none;stroke:#000000"
         d="m 383.424,812.202 h 5.47"
         id="path109" /><path
         style="fill:none;stroke:#000000"
         d="m 394.365,812.202 h -5.471"
         id="path110" /><path
         style="fill:none;stroke:#000000"
         d="M 383.424,812.202 V 794.06"
         id="path111" /><path
         style="fill:none;stroke:#000000"
         d="m 383.424,812.202 h 5.47"
         id="path112" /><path
         style="fill:none;stroke:#000000"
         d="m 383.424,794.06 h 10.941"
         id="path113" /></g><g
       inkscape:label="0"
       id="g48"
       transform="matrix(0.26458333,0,0,0.26458333,49.243243,-198.224)"><path
         style="fill:none;stroke:#000000"
         d="M -66.1417,1122.52 V 903.562"
         id="path5-5" /><path
         style="fill:none;stroke:#000000"
         d="M -58.8396,892.966 -26.4567,880.63"
         id="path6-8" /><path
         style="fill:none;stroke:#000000"
         d="M -26.4567,880.63 V 786.142"
         id="path7-3" /><path
         style="fill:none;stroke:#000000"
         d="m -46.8472,1122.52 v 10.58"
         id="path8-5" /><path
         style="fill:none;stroke:#000000"
         d="M -46.8472,1133.1 H -66.1417"
         id="path9-8" /><path
         style="fill:none;stroke:#000000"
         d="m -66.1417,1133.1 v -10.58"
         id="path10-7" /><path
         style="fill:none;stroke:#000000"
         d="m 66.1417,1133.1 v -10.58"
         id="path11-6" /><path
         style="fill:none;stroke:#000000"
         d="M 26.4567,880.63 V 786.142"
         id="path12-8" /><path
         style="fill:none;stroke:#000000"
         d="m 46.8472,1122.52 v 10.58"
         id="path13-9" /><path
         style="fill:none;stroke:#000000"
         d="M 58.8396,892.966 26.4567,880.63"
         id="path14-4" /><path
         style="fill:none;stroke:#000000"
         d="M 46.8472,1133.1 H 66.1417"
         id="path15-0" /><path
         style="fill:none;stroke:#000000"
         d="M 66.1417,1122.52 V 903.562"
         id="path16-3" /><path
         d="m 0,759.68503 a 26.456693,26.456693 0 0 0 -26.456693,26.4567"
         style="fill:none;stroke:#000000"
         id="path17-3" /><path
         d="M 26.456693,786.14173 A 26.456693,26.456693 0 0 0 0,759.68503"
         style="fill:none;stroke:#000000"
         id="path18-8" /><path
         style="fill:none;stroke:#000000"
         d="M 311.811,1122.52 V 903.562"
         id="path19-4" /><path
         style="fill:none;stroke:#000000"
         d="M 444.094,1122.52 V 903.562"
         id="path20-7" /><path
         style="fill:none;stroke:#000000"
         d="M 351.496,880.63 V 786.142"
         id="path21-5" /><path
         style="fill:none;stroke:#000000"
         d="m 424.8,1122.52 v 10.58"
         id="path22-9" /><path
         style="fill:none;stroke:#000000"
         d="M 436.792,892.966 404.409,880.63"
         id="path23-7" /><path
         style="fill:none;stroke:#000000"
         d="m 311.811,1133.1 v -10.58"
         id="path24-7" /><path
         style="fill:none;stroke:#000000"
         d="M 377.953,1122.52 H 424.8"
         id="path25-9" /><path
         d="M 404.40945,786.14173 A 26.456693,26.456693 0 0 0 383.62205,760.2996"
         style="fill:none;stroke:#000000"
         id="path26-2" /><path
         style="fill:none;stroke:#000000"
         d="M 331.106,1133.1 H 311.811"
         id="path27-8" /><path
         d="m 372.28346,760.2996 a 26.456693,26.456693 0 0 0 -20.7874,25.84213"
         style="fill:none;stroke:#000000"
         id="path28-4" /><path
         style="fill:none;stroke:#000000"
         d="M 377.953,1122.52 H 331.106"
         id="path29-3" /><path
         style="fill:none;stroke:#000000"
         d="M 404.409,880.63 V 786.142"
         id="path30-6" /><path
         style="fill:none;stroke:#000000"
         d="m 444.094,1133.1 v -10.58"
         id="path31-9" /><path
         style="fill:none;stroke:#000000"
         d="M 319.113,892.966 351.496,880.63"
         id="path32-6" /><path
         style="fill:none;stroke:#000000"
         d="m 331.106,1122.52 v 10.58"
         id="path33-1" /><path
         style="fill:none;stroke:#000000"
         d="m 424.8,1133.1 h 19.294"
         id="path34-7" /><path
         style="fill:none;stroke:#000000"
         d="M 372.283,760.3 V 941.717"
         id="path35-7" /><path
         style="fill:none;stroke:#000000"
         d="m 372.283,941.717 h 5.67"
         id="path36-7" /><path
         d="m -58.839632,892.96628 a 11.338583,11.338583 0 0 0 -7.3021,10.59576"
         style="fill:none;stroke:#000000"
         id="path37-0" /><path
         d="m 66.141732,903.56204 a 11.338583,11.338583 0 0 0 -7.3021,-10.59576"
         style="fill:none;stroke:#000000"
         id="path38-9" /><path
         d="m 319.11312,892.96628 a 11.338583,11.338583 0 0 0 -7.3021,10.59576"
         style="fill:none;stroke:#000000"
         id="path39-9" /><path
         d="m 444.09449,903.56204 a 11.338583,11.338583 0 0 0 -7.3021,-10.59576"
         style="fill:none;stroke:#000000"
         id="path40-6" /><path
         style="fill:none;stroke:#000000"
         d="M 383.622,760.3 V 941.717"
         id="path41-4" /><path
         style="fill:none;stroke:#000000"
         d="m 383.622,941.717 h -5.669"
         id="path42-0" /><path
         style="fill:none;stroke:#000000"
         d="M 0,941.102 H 5.6315"
         id="path43-9" /><path
         style="fill:none;stroke:#000000"
         d="M 0,941.102 H -5.6315"
         id="path44-0" /><path
         style="fill:none;stroke:#000000"
         d="M -5.6315,941.102 V 1122.52"
         id="path45-9" /><path
         style="fill:none;stroke:#000000"
         d="M 5.6315,941.102 V 1122.52"
         id="path46-2" /><path
         style="fill:none;stroke:#000000"
         d="M -46.8472,1122.52 H -5.6315"
         id="path47-8" /><path
         style="fill:none;stroke:#000000"
         d="M 46.8472,1122.52 H 5.6315"
         id="path48-1" /></g><path
       d="m 36.905404,128.33785 0.9475,-5.20001 v -1.79999 h 3.105 v 1.79999 l 0.9475,5.20001 v 4.99999 h -5 z"
       style="fill:none;stroke:#000000;stroke-width:0.264583"
       id="path5-3" /><path
       d="m 51.987978,128.33785 0.9475,-5.20001 v -1.79999 h 3.105 v 1.79999 l 0.9475,5.20001 v 4.99999 h -5 z"
       style="fill:none;stroke:#000000;stroke-width:0.264583"
       id="path5-3-8" /><path
       d="m 67.070551,128.33785 0.9475,-5.20001 v -1.79999 h 3.105 v 1.79999 l 0.9475,5.20001 v 4.99999 h -5 z"
       style="fill:none;stroke:#000000;stroke-width:0.264583"
       id="path5-3-4" /><path
       d="m 82.153125,128.33785 0.9475,-5.20001 v -1.79999 h 3.105 v 1.79999 l 0.9475,5.20001 v 4.99999 h -5 z"
       style="fill:none;stroke:#000000;stroke-width:0.264583"
       id="path5-3-7" /><path
       d="m 77.59113,12.338782 a 1.6126346,1.6126346 0 0 0 -1.500684,2.134753 l 5.961393,17.426327 a 10,10 0 0 1 0.538469,3.237011 v 64.292717 2.79931 h 5.200199 v -2.79931 h 8.351428 8.351425 v 2.79931 h 5.2002 V 99.42959 35.136873 a 10,10 0 0 1 0.53847,-3.237011 l 5.96139,-17.426327 a 1.6126346,1.6126346 0 1 0 -3.05149,-1.043864 l -6.44715,18.845362 A 10.582519,10.08083 0 0 1 96.141935,42.143164 10.582519,10.08083 0 0 1 85.588057,32.272965 L 79.141939,13.429671 A 1.6126346,1.6126346 0 0 0 77.59113,12.338782 Z"
       style="fill:none;stroke:#000000;stroke-width:0.0971263"
       id="path115" /></g></svg>
